REM DIRINDEX 1\2,1\3,1\4
REM DIRNAME cjc151,folder01,folder02,folder03
TITLE ""
FILE "112 112_Lesson 14_TOEFL_3900.mp3" MP3
  TRACK 01 AUDIO
    TITLE "4:cjc151_4885"
    INDEX 01 00:00:00
  TRACK 02 AUDIO
    TITLE "0:"
    INDEX 01 00:01:48
  TRACK 03 AUDIO
    TITLE "2:cjc151_4886"
    INDEX 01 00:02:28
  TRACK 04 AUDIO
    TITLE "0:"
    INDEX 01 00:03:72
  TRACK 05 AUDIO
    TITLE "3:cjc151_4887"
    INDEX 01 00:05:50
  TRACK 06 AUDIO
    TITLE "0:"
    INDEX 01 00:08:62
  TRACK 07 AUDIO
    TITLE "2:cjc151_4888"
    INDEX 01 00:10:41
  TRACK 08 AUDIO
    TITLE "0:"
    INDEX 01 00:11:54
  TRACK 09 AUDIO
    TITLE "3:cjc151_4889"
    INDEX 01 00:13:26
  TRACK 10 AUDIO
    TITLE "0:"
    INDEX 01 00:16:49
  TRACK 11 AUDIO
    TITLE "2:cjc151_4890"
    INDEX 01 00:18:29
  TRACK 12 AUDIO
    TITLE "0:"
    INDEX 01 00:19:46
  TRACK 13 AUDIO
    TITLE "3:cjc151_4891"
    INDEX 01 00:21:25
  TRACK 14 AUDIO
    TITLE "0:"
    INDEX 01 00:25:07
  TRACK 15 AUDIO
    TITLE "2:cjc151_4892"
    INDEX 01 00:26:66
  TRACK 16 AUDIO
    TITLE "0:"
    INDEX 01 00:28:13
  TRACK 17 AUDIO
    TITLE "3:cjc151_4893"
    INDEX 01 00:29:68
  TRACK 18 AUDIO
    TITLE "0:"
    INDEX 01 00:33:60
  TRACK 19 AUDIO
    TITLE "2:cjc151_4894"
    INDEX 01 00:35:41
  TRACK 20 AUDIO
    TITLE "0:"
    INDEX 01 00:37:01
  TRACK 21 AUDIO
    TITLE "3:cjc151_4895"
    INDEX 01 00:38:55
  TRACK 22 AUDIO
    TITLE "0:"
    INDEX 01 00:43:39
  TRACK 23 AUDIO
    TITLE "2:cjc151_4896"
    INDEX 01 00:45:26
  TRACK 24 AUDIO
    TITLE "0:"
    INDEX 01 00:46:45
  TRACK 25 AUDIO
    TITLE "3:cjc151_4897"
    INDEX 01 00:48:34
  TRACK 26 AUDIO
    TITLE "0:"
    INDEX 01 00:52:69
  TRACK 27 AUDIO
    TITLE "2:cjc151_4898"
    INDEX 01 00:54:54
  TRACK 28 AUDIO
    TITLE "0:"
    INDEX 01 00:56:04
  TRACK 29 AUDIO
    TITLE "3:cjc151_4899"
    INDEX 01 00:57:58
  TRACK 30 AUDIO
    TITLE "0:"
    INDEX 01 01:01:52
  TRACK 31 AUDIO
    TITLE "2:cjc151_4900"
    INDEX 01 01:03:31
  TRACK 32 AUDIO
    TITLE "0:"
    INDEX 01 01:05:07
  TRACK 33 AUDIO
    TITLE "3:cjc151_4901"
    INDEX 01 01:06:61
  TRACK 34 AUDIO
    TITLE "0:"
    INDEX 01 01:11:03
  TRACK 35 AUDIO
    TITLE "2:cjc151_4902"
    INDEX 01 01:12:58
  TRACK 36 AUDIO
    TITLE "0:"
    INDEX 01 01:15:15
  TRACK 37 AUDIO
    TITLE "3:cjc151_4903"
    INDEX 01 01:16:67
  TRACK 38 AUDIO
    TITLE "0:"
    INDEX 01 01:20:63
  TRACK 39 AUDIO
    TITLE "2:cjc151_4904"
    INDEX 01 01:22:42
  TRACK 40 AUDIO
    TITLE "0:"
    INDEX 01 01:23:58
  TRACK 41 AUDIO
    TITLE "3:cjc151_4905"
    INDEX 01 01:25:43
  TRACK 42 AUDIO
    TITLE "0:"
    INDEX 01 01:28:65
  TRACK 43 AUDIO
    TITLE "2:cjc151_4906"
    INDEX 01 01:30:46
  TRACK 44 AUDIO
    TITLE "0:"
    INDEX 01 01:31:63
  TRACK 45 AUDIO
    TITLE "3:cjc151_4907"
    INDEX 01 01:33:38
  TRACK 46 AUDIO
    TITLE "0:"
    INDEX 01 01:36:41
  TRACK 47 AUDIO
    TITLE "2:cjc151_4908"
    INDEX 01 01:38:24
  TRACK 48 AUDIO
    TITLE "0:"
    INDEX 01 01:39:63
  TRACK 49 AUDIO
    TITLE "3:cjc151_4909"
    INDEX 01 01:41:42
  TRACK 50 AUDIO
    TITLE "0:"
    INDEX 01 01:44:66
  TRACK 51 AUDIO
    TITLE "2:cjc151_4910"
    INDEX 01 01:46:43
  TRACK 52 AUDIO
    TITLE "0:"
    INDEX 01 01:48:32
  TRACK 53 AUDIO
    TITLE "3:cjc151_4911"
    INDEX 01 01:50:13
  TRACK 54 AUDIO
    TITLE "0:"
    INDEX 01 01:54:05
  TRACK 55 AUDIO
    TITLE "2:cjc151_4912"
    INDEX 01 01:55:58
  TRACK 56 AUDIO
    TITLE "0:"
    INDEX 01 01:57:19
  TRACK 57 AUDIO
    TITLE "3:cjc151_4913"
    INDEX 01 01:59:03
  TRACK 58 AUDIO
    TITLE "0:"
    INDEX 01 02:03:12
  TRACK 59 AUDIO
    TITLE "2:cjc151_4914"
    INDEX 01 02:04:70
  TRACK 60 AUDIO
    TITLE "0:"
    INDEX 01 02:06:22
  TRACK 61 AUDIO
    TITLE "3:cjc151_4915"
    INDEX 01 02:07:71
  TRACK 62 AUDIO
    TITLE "0:"
    INDEX 01 02:11:25
  TRACK 63 AUDIO
    TITLE "2:cjc151_4916"
    INDEX 01 02:13:05
  TRACK 64 AUDIO
    TITLE "0:"
    INDEX 01 02:14:22
  TRACK 65 AUDIO
    TITLE "3:cjc151_4917"
    INDEX 01 02:16:01
  TRACK 66 AUDIO
    TITLE "0:"
    INDEX 01 02:20:01
  TRACK 67 AUDIO
    TITLE "2:cjc151_4918"
    INDEX 01 02:21:57
  TRACK 68 AUDIO
    TITLE "0:"
    INDEX 01 02:23:34
  TRACK 69 AUDIO
    TITLE "3:cjc151_4919"
    INDEX 01 02:25:12
  TRACK 70 AUDIO
    TITLE "0:"
    INDEX 01 02:28:59
  TRACK 71 AUDIO
    TITLE "2:cjc151_4920"
    INDEX 01 02:30:38
  TRACK 72 AUDIO
    TITLE "0:"
    INDEX 01 02:31:61
  TRACK 73 AUDIO
    TITLE "3:cjc151_4921"
    INDEX 01 02:33:41
  TRACK 74 AUDIO
    TITLE "0:"
    INDEX 01 02:36:74
  TRACK 75 AUDIO
    TITLE "2:cjc151_4922"
    INDEX 01 02:38:54
  TRACK 76 AUDIO
    TITLE "0:"
    INDEX 01 02:39:59
  TRACK 77 AUDIO
    TITLE "3:cjc151_4923"
    INDEX 01 02:41:28
  TRACK 78 AUDIO
    TITLE "0:"
    INDEX 01 02:45:14
  TRACK 79 AUDIO
    TITLE "2:cjc151_4924"
    INDEX 01 02:47:03
  TRACK 80 AUDIO
    TITLE "0:"
    INDEX 01 02:48:38
  TRACK 81 AUDIO
    TITLE "3:cjc151_4925"
    INDEX 01 02:50:18
  TRACK 82 AUDIO
    TITLE "0:"
    INDEX 01 02:53:69
  TRACK 83 AUDIO
    TITLE "2:cjc151_4926"
    INDEX 01 02:55:48
  TRACK 84 AUDIO
    TITLE "0:"
    INDEX 01 02:57:08
  TRACK 85 AUDIO
    TITLE "3:cjc151_4927"
    INDEX 01 02:58:62
  TRACK 86 AUDIO
    TITLE "0:"
    INDEX 01 03:03:10
  TRACK 87 AUDIO
    TITLE "2:cjc151_4928"
    INDEX 01 03:04:67
  TRACK 88 AUDIO
    TITLE "0:"
    INDEX 01 03:06:15
  TRACK 89 AUDIO
    TITLE "3:cjc151_4929"
    INDEX 01 03:07:69
  TRACK 90 AUDIO
    TITLE "0:"
    INDEX 01 03:12:64
